<svg width="32" height="32" viewBox="0 0 32 32" fill="none" xmlns="http://www.w3.org/2000/svg">
<rect width="32" height="32" fill="white"/>
<mask id="mask0_4_144" style="mask-type:luminance" maskUnits="userSpaceOnUse" x="8" y="3" width="16" height="11">
<path d="M8 3.26758H24V13.1378H8V3.26758Z" fill="white"/>
</mask>
<g mask="url(#mask0_4_144)">
<path d="M21.9408 13.0678C21.8104 13.0678 21.681 13.055 21.5525 13.0294C21.4246 13.0037 21.3001 12.9663 21.1795 12.916C21.0589 12.8657 20.9442 12.8045 20.8355 12.7316C20.7272 12.6591 20.6268 12.5763 20.5343 12.4836C20.4418 12.3909 20.3596 12.2903 20.2868 12.1813C20.2144 12.0724 20.1529 11.9575 20.1032 11.8367C20.053 11.7154 20.0156 11.5907 19.99 11.4625C19.9644 11.3338 19.9516 11.2041 19.9516 11.073C19.9487 10.9453 19.9393 10.8181 19.9241 10.6914C19.9088 10.5642 19.8872 10.4384 19.8591 10.3137C19.8316 10.1889 19.7976 10.0662 19.7577 9.9444C19.7179 9.82311 19.6726 9.70379 19.6209 9.58694C19.5697 9.47009 19.5127 9.35619 19.4502 9.24476C19.3872 9.13334 19.3192 9.02536 19.2464 8.92083C19.1731 8.81631 19.0948 8.71523 19.0122 8.6186C18.929 8.52147 18.8414 8.42878 18.7494 8.34052C18.6573 8.25227 18.5609 8.16845 18.4605 8.08956C18.3606 8.01067 18.2568 7.93672 18.149 7.86818C18.0417 7.79965 17.931 7.73654 17.8173 7.67836C17.7036 7.62067 17.5875 7.56891 17.4689 7.52207C17.3498 7.47572 17.2292 7.43529 17.1067 7.40078C16.9836 7.36676 16.8596 7.33816 16.7341 7.31597C16.6086 7.29379 16.4826 7.27752 16.3552 7.26765C16.2282 7.25779 16.1012 7.25434 15.9738 7.25681C15.8463 7.25434 15.7189 7.25779 15.5919 7.26765C15.4649 7.27752 15.3384 7.29379 15.213 7.31597C15.0875 7.33816 14.9634 7.36676 14.8409 7.40078C14.7184 7.43529 14.5973 7.47572 14.4787 7.52207C14.3601 7.56891 14.2435 7.62067 14.1298 7.67836C14.0161 7.73654 13.9059 7.79965 13.7981 7.86818C13.6908 7.93672 13.587 8.01067 13.4866 8.08956C13.3862 8.16845 13.2902 8.25227 13.1982 8.34052C13.1062 8.42878 13.0186 8.52147 12.9354 8.6186C12.8522 8.71523 12.7745 8.81631 12.7011 8.92083C12.6278 9.02536 12.5599 9.13334 12.4974 9.24476C12.4349 9.35619 12.3778 9.47009 12.3261 9.58694C12.275 9.70379 12.2292 9.82311 12.1893 9.9444C12.15 10.0662 12.116 10.1889 12.088 10.3137C12.0604 10.4384 12.0387 10.5642 12.0235 10.6914C12.0077 10.8181 11.9989 10.9453 11.9954 11.073C11.9954 11.2041 11.9831 11.3338 11.9575 11.4625C11.9319 11.5907 11.8941 11.7154 11.8443 11.8367C11.7942 11.9575 11.7331 12.0724 11.6603 12.1813C11.588 12.2903 11.5053 12.3909 11.4132 12.4836C11.3207 12.5763 11.2203 12.6591 11.1116 12.7316C11.0033 12.8045 10.8886 12.8657 10.7676 12.916C10.647 12.9663 10.523 13.0037 10.3945 13.0294C10.2666 13.055 10.1372 13.0678 10.0068 13.0678C9.87585 13.0678 9.74691 13.055 9.61846 13.0294C9.49051 13.0037 9.366 12.9663 9.24543 12.916C9.12486 12.8657 9.0102 12.8045 8.90144 12.7316C8.79317 12.6591 8.69277 12.5763 8.60026 12.4836C8.50774 12.3909 8.42555 12.2903 8.35272 12.1813C8.28037 12.0724 8.21886 11.9575 8.16915 11.8367C8.11896 11.7154 8.08155 11.5907 8.05596 11.4625C8.03037 11.3338 8.01758 11.2041 8.01758 11.073C8.02102 10.8146 8.03677 10.5573 8.06482 10.3004C8.09337 10.0435 8.13421 9.78859 8.18736 9.53566C8.24051 9.28322 8.30596 9.03325 8.38372 8.78722C8.46148 8.5407 8.55104 8.29861 8.65242 8.06146C8.7538 7.82381 8.8665 7.59159 8.99051 7.36528C9.11453 7.13848 9.24937 6.91907 9.39504 6.70558C9.54071 6.49259 9.69622 6.28699 9.86207 6.08878C10.0274 5.89107 10.2026 5.70174 10.3867 5.52129C10.5707 5.34034 10.7636 5.16926 10.9644 5.00754C11.1652 4.84582 11.3734 4.69396 11.5894 4.55295C11.805 4.41145 12.0274 4.28128 12.2558 4.16196C12.4841 4.04215 12.7179 3.93467 12.957 3.83803C13.1962 3.7414 13.4393 3.65709 13.6869 3.58461C13.9339 3.51213 14.1844 3.45198 14.4374 3.40415C14.6908 3.35633 14.9457 3.32083 15.2021 3.29815C15.459 3.27498 15.7159 3.26512 15.9738 3.26758C16.2312 3.26512 16.4885 3.27498 16.7449 3.29815C17.0018 3.32083 17.2568 3.35633 17.5102 3.40415C17.7631 3.45198 18.0136 3.51213 18.2607 3.58461C18.5082 3.65709 18.7513 3.7414 18.9905 3.83803C19.2292 3.93467 19.463 4.04215 19.6918 4.16196C19.9201 4.28128 20.1421 4.41145 20.3581 4.55295C20.5737 4.69396 20.7823 4.84582 20.9831 5.00754C21.1839 5.16926 21.3763 5.34034 21.5609 5.52129C21.7449 5.70174 21.9196 5.89107 22.0855 6.08878C22.2513 6.28699 22.4068 6.49259 22.5525 6.70558C22.6977 6.91907 22.8325 7.13848 22.9566 7.36528C23.0811 7.59159 23.1938 7.82381 23.2951 8.06146C23.3965 8.29861 23.4856 8.5407 23.5633 8.78722C23.6411 9.03325 23.7066 9.28322 23.7602 9.53566C23.8133 9.78859 23.8542 10.0435 23.8822 10.3004C23.9108 10.5573 23.9265 10.8146 23.93 11.073C23.93 11.2041 23.9172 11.3338 23.8916 11.4625C23.866 11.5907 23.8281 11.7154 23.7784 11.8367C23.7282 11.9575 23.6672 12.0724 23.5943 12.1813C23.522 12.2903 23.4393 12.3909 23.3473 12.4836C23.2548 12.5763 23.1544 12.6591 23.0456 12.7316C22.9374 12.8045 22.8227 12.8657 22.7021 12.916C22.5811 12.9663 22.457 13.0037 22.3286 13.0294C22.2006 13.055 22.0712 13.0678 21.9408 13.0678Z" fill="#FFDC2D"/>
</g>
<path d="M21.9409 28.7324H10.0069C9.87597 28.7324 9.74703 28.7196 9.61859 28.6939C9.49063 28.6683 9.36613 28.6308 9.24555 28.5805C9.12498 28.5302 9.01032 28.4691 8.90156 28.3961C8.79329 28.3232 8.6929 28.2408 8.60038 28.1481C8.50786 28.0554 8.42567 27.9549 8.35284 27.8459C8.2805 27.7369 8.21898 27.6221 8.16927 27.5008C8.11908 27.38 8.08168 27.2552 8.05609 27.127C8.0305 26.9984 8.0177 26.8687 8.0177 26.7375C8.0177 26.6069 8.0305 26.4772 8.05609 26.3485C8.08168 26.2203 8.11908 26.0956 8.16927 25.9743C8.21898 25.8535 8.2805 25.7386 8.35284 25.6297C8.42567 25.5207 8.50786 25.4196 8.60038 25.3274C8.6929 25.2347 8.79329 25.1519 8.90156 25.0794C9.01032 25.0065 9.12498 24.9448 9.24555 24.895C9.36613 24.8447 9.49063 24.8068 9.61859 24.7811C9.74703 24.756 9.87597 24.7432 10.0069 24.7432H21.9409C22.0713 24.7432 22.2008 24.756 22.3287 24.7811C22.4572 24.8068 22.5812 24.8447 22.7022 24.895C22.8228 24.9448 22.9375 25.0065 23.0457 25.0794C23.1545 25.1519 23.2549 25.2347 23.3474 25.3274C23.4395 25.4196 23.5221 25.5207 23.5945 25.6297C23.6673 25.7386 23.7283 25.8535 23.7785 25.9743C23.8282 26.0956 23.8661 26.2203 23.8917 26.3485C23.9173 26.4772 23.9301 26.6069 23.9301 26.7375C23.9301 26.8687 23.9173 26.9984 23.8917 27.127C23.8661 27.2552 23.8282 27.38 23.7785 27.5008C23.7283 27.6221 23.6673 27.7369 23.5945 27.8459C23.5221 27.9549 23.4395 28.0554 23.3474 28.1481C23.2549 28.2408 23.1545 28.3232 23.0457 28.3961C22.9375 28.4691 22.8228 28.5302 22.7022 28.5805C22.5812 28.6308 22.4572 28.6683 22.3287 28.6939C22.2008 28.7196 22.0713 28.7324 21.9409 28.7324Z" fill="#7EB94F"/>
<path d="M18.4271 12.6955C18.4271 12.7759 18.4232 12.8563 18.4153 12.9366C18.4074 13.0165 18.3956 13.0964 18.3799 13.1753C18.3641 13.2541 18.3444 13.3325 18.3213 13.4095C18.2982 13.4864 18.2711 13.5623 18.2401 13.6367C18.2096 13.7112 18.1752 13.7842 18.1373 13.8552C18.0994 13.9262 18.058 13.9952 18.0132 14.0622C17.969 14.1293 17.9212 14.1939 17.87 14.256C17.8194 14.3181 17.7652 14.3778 17.7086 14.435C17.6515 14.4917 17.592 14.5459 17.53 14.5972C17.468 14.648 17.4035 14.6963 17.3366 14.7407C17.2696 14.7855 17.2012 14.827 17.1304 14.8649C17.0595 14.9029 16.9867 14.9374 16.9124 14.968C16.8385 14.999 16.7628 15.0261 16.686 15.0493C16.6092 15.073 16.531 15.0922 16.4522 15.108C16.3735 15.1238 16.2943 15.1356 16.214 15.1435C16.1343 15.1514 16.0541 15.1553 15.9739 15.1553C15.8937 15.1553 15.8134 15.1514 15.7332 15.1435C15.6535 15.1356 15.5738 15.1238 15.495 15.108C15.4163 15.0922 15.3385 15.073 15.2618 15.0493C15.185 15.0261 15.1092 14.999 15.0349 14.968C14.9606 14.9374 14.8882 14.9029 14.8174 14.8649C14.7465 14.827 14.6776 14.7855 14.6107 14.7407C14.5443 14.6963 14.4798 14.648 14.4178 14.5972C14.3553 14.5459 14.2962 14.4917 14.2391 14.435C14.1825 14.3778 14.1284 14.3181 14.0777 14.256C14.0265 14.1939 13.9788 14.1293 13.934 14.0622C13.8892 13.9952 13.8484 13.9262 13.8105 13.8552C13.7726 13.7842 13.7381 13.7112 13.7076 13.6367C13.6766 13.5623 13.6496 13.4864 13.6264 13.4095C13.6028 13.3325 13.5836 13.2541 13.5679 13.1753C13.5521 13.0964 13.5403 13.0165 13.5324 12.9366C13.5246 12.8563 13.5206 12.7759 13.5206 12.6955C13.5206 12.6147 13.5246 12.5343 13.5324 12.4544C13.5403 12.3741 13.5521 12.2947 13.5679 12.2153C13.5836 12.1364 13.6028 12.0585 13.6264 11.9811C13.6496 11.9042 13.6766 11.8283 13.7076 11.7538C13.7381 11.6794 13.7726 11.6069 13.8105 11.5359C13.8484 11.4649 13.8892 11.3959 13.934 11.3288C13.9788 11.2617 14.0265 11.1972 14.0777 11.1345C14.1284 11.0724 14.1825 11.0128 14.2391 10.9561C14.2962 10.8989 14.3553 10.8446 14.4178 10.7938C14.4798 10.7426 14.5443 10.6947 14.6107 10.6499C14.6776 10.605 14.7465 10.5636 14.8174 10.5256C14.8882 10.4877 14.9606 10.4536 15.0349 10.4226C15.1092 10.3915 15.185 10.3649 15.2618 10.3412C15.3385 10.3181 15.4163 10.2983 15.495 10.2826C15.5738 10.2668 15.6535 10.255 15.7332 10.2471C15.8134 10.2392 15.8937 10.2352 15.9739 10.2352C16.0541 10.2352 16.1343 10.2392 16.2145 10.2466C16.2943 10.2545 16.374 10.2663 16.4527 10.2821C16.5315 10.2974 16.6092 10.3171 16.6865 10.3402C16.7632 10.3634 16.839 10.3905 16.9133 10.4216C16.9877 10.4522 17.06 10.4867 17.1309 10.5246C17.2022 10.5626 17.2706 10.604 17.3376 10.6484C17.4045 10.6933 17.469 10.7411 17.5315 10.7924C17.5935 10.8436 17.653 10.8974 17.7096 10.9546C17.7667 11.0118 17.8203 11.0714 17.8715 11.1336C17.9222 11.1957 17.9704 11.2608 18.0147 11.3278C18.0595 11.3949 18.1008 11.4639 18.1387 11.5349C18.1766 11.6059 18.2106 11.6789 18.2416 11.7533C18.2721 11.8278 18.2992 11.9037 18.3223 11.9806C18.3454 12.058 18.3651 12.1359 18.3804 12.2153C18.3961 12.2942 18.4079 12.3741 18.4153 12.4539C18.4232 12.5343 18.4271 12.6147 18.4271 12.6955Z" fill="#34BAD5"/>
<path d="M15.9739 23.7857C15.7112 23.7876 15.4577 23.7393 15.2141 23.6402C14.971 23.5411 14.7554 23.3991 14.5684 23.2137L10.8598 19.4863C10.7677 19.3931 10.6851 19.2925 10.6127 19.1836C10.5399 19.0746 10.4789 18.9592 10.4287 18.8384C10.379 18.7172 10.3411 18.5924 10.3155 18.4637C10.2904 18.3355 10.2776 18.2054 10.2776 18.0747C10.2776 17.9436 10.2904 17.8139 10.316 17.6852C10.3416 17.5565 10.3795 17.4318 10.4292 17.311C10.4794 17.1897 10.5404 17.0748 10.6132 16.9659C10.6861 16.8569 10.7682 16.7558 10.8608 16.6636C10.9533 16.5709 11.0537 16.4881 11.1624 16.4151C11.2707 16.3422 11.3859 16.281 11.5064 16.2307C11.627 16.1804 11.7515 16.1425 11.8795 16.1173C12.0079 16.0917 12.1373 16.0789 12.2677 16.0789C12.3987 16.0784 12.5281 16.0912 12.656 16.1168C12.7845 16.1425 12.909 16.1799 13.0296 16.2302C13.1501 16.2805 13.2648 16.3417 13.3736 16.4146C13.4823 16.4871 13.5832 16.5699 13.6752 16.6626L17.3795 20.3817C17.4484 20.4507 17.5123 20.5247 17.5704 20.6035C17.6285 20.6824 17.6806 20.7648 17.7269 20.8515C17.7727 20.9378 17.812 21.0276 17.845 21.1198C17.878 21.212 17.9041 21.3061 17.9228 21.4023C17.942 21.4984 17.9538 21.5956 17.9587 21.6932C17.9636 21.7913 17.9611 21.8889 17.9513 21.9865C17.942 22.0842 17.9252 22.1803 17.9016 22.2755C17.878 22.3706 17.847 22.4633 17.8101 22.554C17.7727 22.6448 17.7284 22.732 17.6782 22.8158C17.628 22.9001 17.5719 22.98 17.5099 23.056C17.4479 23.1319 17.3809 23.2024 17.3086 23.2685C17.2362 23.334 17.1595 23.3942 17.0778 23.4489C16.9966 23.5036 16.9119 23.5515 16.8234 23.5934C16.7353 23.6358 16.6442 23.6708 16.5507 23.6994C16.4572 23.728 16.3622 23.7492 16.2653 23.764C16.1688 23.7783 16.0714 23.7857 15.9739 23.7857Z" fill="#5F259F"/>
<path d="M15.9739 23.7856C15.876 23.7856 15.779 23.7783 15.6821 23.764C15.5856 23.7492 15.4902 23.728 15.3967 23.6994C15.3031 23.6708 15.2126 23.6358 15.124 23.5934C15.0359 23.5515 14.9508 23.5031 14.8696 23.4489C14.7884 23.3942 14.7116 23.334 14.6393 23.2684C14.5669 23.2024 14.4995 23.1319 14.4375 23.0559C14.3755 22.98 14.3194 22.9001 14.2692 22.8158C14.219 22.732 14.1752 22.6447 14.1378 22.554C14.1004 22.4633 14.0699 22.3706 14.0463 22.2755C14.0226 22.1803 14.0059 22.0842 13.9961 21.9865C13.9867 21.8889 13.9843 21.7913 13.9892 21.6932C13.9936 21.5955 14.0054 21.4984 14.0246 21.4023C14.0438 21.3061 14.0699 21.212 14.1024 21.1198C14.1353 21.0276 14.1752 20.9378 14.221 20.8515C14.2672 20.7648 14.3194 20.6824 14.3775 20.6035C14.4355 20.5246 14.499 20.4507 14.5684 20.3817L18.2721 16.6626C18.3647 16.5699 18.4651 16.4871 18.5738 16.4146C18.6826 16.3417 18.7972 16.2805 18.9183 16.2302C19.0389 16.1799 19.1634 16.1425 19.2913 16.1168C19.4198 16.0912 19.5492 16.0784 19.6796 16.0784C19.8105 16.0784 19.94 16.0912 20.0679 16.1168C20.1964 16.1425 20.3209 16.1804 20.4414 16.2307C20.562 16.2805 20.6767 16.3421 20.7854 16.4151C20.8942 16.4876 20.9946 16.5704 21.0871 16.6631C21.1796 16.7558 21.2618 16.8569 21.3346 16.9659C21.4075 17.0748 21.4685 17.1897 21.5187 17.3105C21.5684 17.4318 21.6063 17.5565 21.6319 17.6852C21.6575 17.8139 21.6703 17.9436 21.6703 18.0747C21.6703 18.2054 21.6575 18.3355 21.6319 18.4637C21.6068 18.5924 21.5689 18.7171 21.5192 18.8384C21.469 18.9592 21.408 19.0746 21.3351 19.1836C21.2628 19.2925 21.1801 19.3931 21.0876 19.4863L17.3794 23.2137C17.1924 23.3991 16.9769 23.5411 16.7333 23.6402C16.4897 23.7393 16.2367 23.7876 15.9739 23.7856Z" fill="#5F259F"/>
</svg>
